<svg xmlns="http://www.w3.org/2000/svg" xmlns:xlink="http://www.w3.org/1999/xlink" width="500" zoomAndPan="magnify" viewBox="0 0 375 374.999991" height="500" preserveAspectRatio="xMidYMid meet" version="1.0"><defs><g/></defs><rect x="-37.5" width="450" fill="#ffffff" y="-37.499999" height="449.999989" fill-opacity="1"/><rect x="-37.5" width="450" fill="#ffffff" y="-37.499999" height="449.999989" fill-opacity="1"/><g fill="#004aad" fill-opacity="1"><g transform="translate(55.775839, 200.903644)"><g><path d="M 25 -31.34375 L 25 -41.796875 L 1.75 -41.796875 L 1.75 -31.34375 L 9.03125 -31.34375 L 9.03125 0 L 17.71875 0 L 17.71875 -31.34375 Z M 25 -31.34375 "/></g></g></g><g fill="#004aad" fill-opacity="1"><g transform="translate(82.524056, 200.903644)"><g><path d="M 2 -41.796875 L 2 -17.8125 C 2 -6.109375 6.1875 0.5 13.625 0.5 C 20.984375 0.5 25.15625 -6.109375 25.15625 -17.8125 L 25.15625 -41.796875 L 16.546875 -41.796875 L 16.546875 -17.8125 C 16.546875 -12.703125 15.46875 -9.953125 13.625 -9.953125 C 11.703125 -9.953125 10.703125 -12.703125 10.703125 -17.8125 L 10.703125 -41.796875 Z M 2 -41.796875 "/></g></g></g><g fill="#004aad" fill-opacity="1"><g transform="translate(109.69021, 200.903644)"><g><path d="M 13.875 0.5 C 7.359375 0.578125 3.015625 -4.09375 1.84375 -12.375 L 9.03125 -14.875 C 9.609375 -11.453125 11.375 -9.453125 13.875 -9.453125 C 16.546875 -9.453125 17.96875 -10.453125 17.96875 -12.28125 C 17.96875 -16.796875 1.25 -18.3125 1.25 -30.59375 C 1.25 -38.125 5.6875 -42.296875 13.546875 -42.296875 C 20.0625 -42.296875 24.40625 -37.703125 25.578125 -29.421875 L 18.3125 -26.921875 C 17.890625 -30.515625 16.140625 -32.515625 13.546875 -32.515625 C 10.875 -32.515625 9.359375 -31.515625 9.359375 -29.59375 C 9.359375 -25.65625 26.171875 -23.578125 26.171875 -11.28125 C 26.171875 -3.59375 21.734375 0.671875 13.875 0.5 Z M 13.875 0.5 "/></g></g></g><g fill="#004aad" fill-opacity="1"><g transform="translate(137.190716, 200.903644)"><g><path d="M 25.15625 -41.796875 L 16.546875 -41.796875 L 16.546875 -26.171875 L 10.703125 -26.171875 L 10.703125 -41.796875 L 2 -41.796875 L 2 0 L 10.703125 0 L 10.703125 -15.71875 L 16.546875 -15.71875 L 16.546875 0 L 25.15625 0 Z M 25.15625 -41.796875 "/></g></g></g><g fill="#004aad" fill-opacity="1"><g transform="translate(164.356871, 200.903644)"><g><path d="M 10.703125 -41.796875 L 2 -41.796875 L 2 0 L 10.703125 0 Z M 10.703125 -41.796875 "/></g></g></g><g fill="#ffffff" fill-opacity="1"><g transform="translate(176.982862, 200.903644)"><g/></g></g><g fill="#ffffff" fill-opacity="1"><g transform="translate(185.592447, 200.903644)"><g><path d="M 31.265625 0 L 31.265625 -41.796875 L 23.484375 -41.796875 L 16.640625 -19.984375 L 9.703125 -41.796875 L 2 -41.796875 L 2 0 L 10.703125 0 L 10.703125 -17.96875 L 14.71875 -6.6875 L 18.5625 -6.6875 L 22.578125 -17.96875 L 22.578125 0 Z M 31.265625 0 "/></g></g></g><g fill="#ffffff" fill-opacity="1"><g transform="translate(218.860545, 200.903644)"><g><path d="M 10.703125 -41.796875 L 2 -41.796875 L 2 0 L 10.703125 0 Z M 10.703125 -41.796875 "/></g></g></g><g fill="#ffffff" fill-opacity="1"><g transform="translate(231.482359, 200.903644)"><g><path d="M 25 -31.34375 L 25 -41.796875 L 1.75 -41.796875 L 1.75 -31.34375 L 9.03125 -31.34375 L 9.03125 0 L 17.71875 0 L 17.71875 -31.34375 Z M 25 -31.34375 "/></g></g></g><g fill="#ffffff" fill-opacity="1"><g transform="translate(258.230576, 200.903644)"><g><path d="M 25 -31.34375 L 25 -41.796875 L 1.75 -41.796875 L 1.75 -31.34375 L 9.03125 -31.34375 L 9.03125 0 L 17.71875 0 L 17.71875 -31.34375 Z M 25 -31.34375 "/></g></g></g><g fill="#ffffff" fill-opacity="1"><g transform="translate(284.978792, 200.903644)"><g><path d="M 18.71875 -5.9375 L 19.984375 0 L 28.421875 0 L 18.890625 -41.796875 L 10.03125 -41.796875 L 0.5 0 L 8.9375 0 L 10.203125 -5.9375 Z M 16.546875 -15.546875 L 12.375 -15.546875 L 14.46875 -28 Z M 16.546875 -15.546875 "/></g></g></g><g fill="#ffffff" fill-opacity="1"><g transform="translate(313.900299, 200.903644)"><g><path d="M 21.90625 -10.453125 L 10.703125 -10.453125 L 10.703125 -41.796875 L 2 -41.796875 L 2 0 L 21.90625 0 Z M 21.90625 -10.453125 "/></g></g></g></svg>